<svg xmlns="http://www.w3.org/2000/svg" viewBox="0 0 15 11" ><path d="m 6.6631176,9.775655 1.917867,-8.57247 h 1.7462404 l -0.8097644,3.61948 2.3549244,-3.61948 h 1.69333 l -2.470516,3.85232 0.669069,4.72015 h -1.75683 l -0.4634204,-3.84174 -0.384086,0.48683 -0.750574,3.35491 z m -3.404473,0.127 q -0.84667,0 -1.28126,-0.32808 -0.432232,-0.33867 -0.51952,-0.94192 -0.07671,-0.60325 0.09614,-1.37583 0.07814,-0.34925 0.210299,-0.65616 0.132165,-0.30692 0.315991,-0.56092 0.183826,-0.254 0.406363,-0.44449 0.235489,-0.20109 0.517902,-0.32809 -0.292424,-0.254 -0.455202,-0.70908 -0.149821,-0.46566 -0.0018,-1.17474 0.148041,-0.70909 0.50512,-1.21708 0.359441,-0.51859 0.907831,-0.79375 0.548392,-0.27517 1.268062,-0.27517 0.73025,0 1.144928,0.27517 0.42528,0.27516 0.542089,0.79375 0.119181,0.50799 -0.05004,1.21708 -0.171605,0.71966 -0.529766,1.18533 -0.345233,0.45508 -0.759519,0.69849 0.225587,0.127 0.360508,0.32809 0.147883,0.19049 0.218057,0.44449 0.07017,0.254 0.06501,0.56092 0.0054,0.30691 -0.0727,0.65616 -0.151645,0.77258 -0.519466,1.37583 -0.357212,0.60325 -0.94098,0.94192 -0.57082,0.32808 -1.42806,0.32808 z m 0.27229,-1.21708 q 0.30691,0 0.502436,-0.21167 0.195523,-0.21166 0.306519,-0.51858 0.110963,-0.30691 0.174892,-0.59266 0.08637,-0.33867 0.104501,-0.65617 0.02873,-0.3175 -0.07448,-0.51858 -0.103184,-0.20108 -0.410094,-0.20108 -0.29633,0 -0.500066,0.20108 -0.193157,0.20108 -0.317109,0.51858 -0.110965,0.30692 -0.189101,0.65617 -0.06393,0.28575 -0.09266,0.60324 -0.02637,0.30692 0.07448,0.51859 0.113763,0.20108 0.420682,0.20108 z m 0.902109,-4.03224 q 0.21166,0 0.374176,-0.15875 0.173106,-0.15875 0.302903,-0.45508 0.129796,-0.29633 0.219771,-0.6985 0.101812,-0.45508 0.0152,-0.73025 -0.07365,-0.28574 -0.391153,-0.28574 -0.3175,0 -0.540177,0.28574 -0.209732,0.27517 -0.309177,0.71967 -0.08997,0.40216 -0.105738,0.70908 -0.0028,0.29633 0.09927,0.45508 0.112654,0.15875 0.334904,0.15875 z"></path></svg>
