<svg xmlns="http://www.w3.org/2000/svg" viewBox="0 0 24 24" ><path d="M 3.2423933,0.69919545 A 1.162877,1.162877 0 0 0 2.0905154,1.6863294 L 1.1123798,8.0893477 A 1.162877,1.162877 0 0 0 2.0862519,9.4144955 L 8.4896487,10.392346 A 1.162877,1.162877 0 0 0 9.6021186,8.5544951 L 7.8032976,6.1070269 C 10.160793,4.5172265 13.303726,4.3115395 15.944316,5.8360854 c 3.695149,2.1333949 4.949096,6.8130046 2.815703,10.5081526 -2.133395,3.695149 -6.812626,4.948716 -10.5077757,2.815323 a 1.5581603,1.5581603 0 0 0 -2.1285906,0.5704 1.5581603,1.5581603 0 0 0 0.5703967,2.128591 C 11.847744,24.834036 18.483143,23.055843 21.458629,17.902149 24.434115,12.748454 22.656205,6.1129621 17.502511,3.1374744 15.891983,2.2076344 14.136902,1.7419249 12.393852,1.6984556 10.112158,1.641555 7.8513282,2.3082021 5.9633615,3.603759 L 4.1769504,1.1732471 A 1.162877,1.162877 0 0 0 3.2423933,0.69919545 Z"></path></svg>
