<svg xmlns="http://www.w3.org/2000/svg" viewBox="0 0 15 11" ><path d="m 7.4850147,9.78623 1.917867,-8.57246 h 2.0954943 q 1.09008,0 1.629401,0.28574 0.552268,0.27517 0.671309,0.87841 0.121405,0.59267 -0.08695,1.524 L 13.013654,7.024 Q 12.800556,7.97649 12.409228,8.59033 12.0179,9.20416 11.348351,9.50049 10.691764,9.78623 9.6228437,9.78623 Z m 2.018532,-1.21707 h 0.37042 q 0.4868303,0 0.7210593,-0.14817 0.247186,-0.15874 0.366392,-0.45508 0.121566,-0.30692 0.221011,-0.75142 l 0.790824,-3.53482 q 0.09944,-0.4445 0.08454,-0.70908 -0.0019,-0.27517 -0.185195,-0.40217 -0.172667,-0.12699 -0.638337,-0.12699 h -0.35983 z m -8.347329,1.21707 1.917867,-8.57246 h 1.746244 l -0.788457,3.52424 h 1.513412 l 0.788457,-3.52424 h 1.746245 l -1.917867,8.57246 h -1.746245 l 0.850017,-3.79939 h -1.513412 l -0.850017,3.79939 z"></path></svg>
