<svg xmlns="http://www.w3.org/2000/svg" xmlns:xlink="http://www.w3.org/1999/xlink" viewBox="0 0 100 100">
  <path d="m 52.800093,68.384429 a 3.4371586,3.4371586 0 0 1 2.430438,-4.209641 3.4371586,3.4371586 0 0 1 4.209643,2.430437 3.4371586,3.4371586 0 0 1 -2.430439,4.209643 3.4371586,3.4371586 0 0 1 -4.209642,-2.430439 z M 50.064728,31.61557 a 3.4371586,3.4371586 0 0 1 -2.430438,4.209643 3.4371586,3.4371586 0 0 1 -4.209642,-2.430439 3.4371586,3.4371586 0 0 1 2.430438,-4.209641 3.4371586,3.4371586 0 0 1 4.209642,2.430437 z m -17.04521,10.326585 a 2,2 0 0 1 1.414213,2.44949 2,2 0 0 1 -2.44949,1.414213 2,2 0 0 1 -1.414213,-2.449489 2,2 0 0 1 2.44949,-1.414214 z m 6.436397,-7.454183 a 2.5,2.5 0 0 1 0,3.535534 2.5,2.5 0 0 1 -3.535534,0 2.5,2.5 0 0 1 10e-7,-3.535534 2.5,2.5 0 0 1 3.535533,0 z m 27.524567,20.704927 a 2,2 0 0 1 -1.414213,-2.44949 2,2 0 0 1 2.449489,-1.414214 2,2 0 0 1 1.414214,2.44949 2,2 0 0 1 -2.44949,1.414214 z m -5.455386,8.422134 a 2.5,2.5 0 0 1 1e-6,-3.535533 2.5,2.5 0 0 1 3.535533,-1e-6 2.5,2.5 0 0 1 10e-7,3.535535 2.5,2.5 0 0 1 -3.535535,-1e-6 z">
    <animateTransform
      attributeName="transform"
      type="rotate"
      repeatCount="indefinite"
      dur="2s"
      keyTimes="0;1"
      values="0 50 50;360 50 50"
    ></animateTransform>
  </path>
</svg>
