<svg xmlns="http://www.w3.org/2000/svg" viewBox="0 0 15 11" ><path d="M 6.7911254,9.78094 8.7089926,1.20847 h 2.0954934 q 1.090079,0 1.629399,0.28575 0.552269,0.27517 0.671309,0.87841 0.121404,0.59267 -0.08696,1.524 L 12.319753,7.0187 Q 12.106655,7.9712 11.715328,8.58503 11.324001,9.19886 10.654456,9.49519 9.9978622,9.78094 8.9289494,9.78094 Z m 2.018535,-1.21708 h 0.370415 q 0.4868318,0 0.7210618,-0.14816 Q 10.148319,8.25695 10.267531,7.96062 10.389117,7.6537 10.488562,7.2092 l 0.790824,-3.53482 q 0.09944,-0.4445 0.08456,-0.70908 -0.0019,-0.27517 -0.185191,-0.40217 -0.17267,-0.127 -0.638335,-0.127 h -0.359832 z m -5.0333569,1.3335 q -0.793747,0 -1.2589829,-0.28575 Q 2.0544518,9.31528 1.909511,8.7332 1.7775235,8.14053 1.938814,7.23037 l 1.5596549,-0.254 q -0.097216,0.52916 -0.093058,0.889 0.017114,0.34925 0.1567802,0.52916 0.1526158,0.16933 0.4277818,0.16933 0.338665,0 0.5024354,-0.21166 Q 4.666763,8.14053 4.7283229,7.86537 4.8490779,7.32562 4.6649989,6.96579 4.4938718,6.59537 4.1534117,6.22495 L 3.4372594,5.45237 Q 3.0509832,5.05021 2.857719,4.54221 2.6750388,4.03421 2.84078,3.29338 3.0775538,2.23505 3.8168738,1.67414 q 0.7522733,-0.5715 1.8317703,-0.5715 0.645581,0 1.0109765,0.21166 0.3653924,0.21167 0.5071398,0.5715 0.1546964,0.34925 0.1446543,0.77258 0.00291,0.41275 -0.068268,0.8255 L 5.701179,3.70613 Q 5.767615,3.31455 5.781003,3.01821 5.804969,2.72188 5.694683,2.55255 5.594983,2.38322 5.3092342,2.38322 q -0.306916,0 -0.5071716,0.23283 Q 4.6041739,2.8383 4.542614,3.11346 4.4407995,3.56855 4.575586,3.86488 4.7233229,4.15063 5.0121225,4.46813 L 5.7094771,5.23012 Q 6.1450446,5.69579 6.3910821,6.29904 6.6500718,6.8917 6.4535481,7.77012 6.3185888,8.37336 5.9345051,8.8602 5.5504235,9.34703 4.9914486,9.62219 4.4430545,9.89736 3.7763065,9.89736 Z"></path></svg>
