<svg xmlns="http://www.w3.org/2000/svg" viewBox="0 0 24 24" ><path d="m 8.2011719,0.44726562 c -4.2069589,0 -7.75390628,3.54694738 -7.75390628,7.75390628 0,4.2069591 3.54694738,7.7558591 7.75390628,7.7558591 1.5947543,0 3.0939081,-0.512801 4.3417971,-1.375 l 7.086211,7.092071 c 0.563337,0.562428 1.475724,0.562428 2.039062,0 0.56634,-0.564005 0.56634,-1.480917 0,-2.044922 l -7.086211,-7.086211 c 0.862164,-1.247873 1.373047,-2.7470783 1.373047,-4.3417971 0,-4.2069589 -3.546947,-7.75390447 -7.7539061,-7.75390628 z m 0,2.72070318 c 2.7048541,0 5.0332031,2.3283489 5.0332031,5.0332031 0,2.7048541 -2.328349,5.0351561 -5.0332031,5.0351561 -2.7048544,0 -5.0351563,-2.330302 -5.0351563,-5.0351561 0,-2.7048542 2.3303019,-5.0332031 5.0351563,-5.0332031 z"></path></svg>
