<svg xmlns="http://www.w3.org/2000/svg" viewBox="0 0 576 512" ><path id="starLeft" d="M 288 -0.009765625 C 276.59987 -0.034344313 265.19437 5.8637571 259.30078 17.800781 L 194 150.19922 L 47.900391 171.5 C 21.700391 175.3 11.199219 207.59961 30.199219 226.09961 L 135.90039 329.09961 L 110.90039 474.59961 C 106.40039 500.89961 134.10078 520.60078 157.30078 508.30078 L 288 439.59961 L 288 -0.009765625 z"></path><path id="starRight" d="M 287.8,-0.00976563 V 439.59961 l 130.89922,68.70117 c 23.2,12.2 50.90039,-7.40117 46.40039,-33.70117 l -25,-145.5 105.70117,-103 c 19,-18.5 8.49883,-50.79961 -17.70117,-54.59961 L 382,150.19922 316.69922,17.800781 C 310.84287,5.9879682 299.22491,0.0148665 287.8,-0.00976563 Z"></path></svg>
